<mxfile host="app.diagrams.net" modified="2023-10-22T10:48:46.739Z" agent="Mozilla/5.0 (Windows NT 10.0; Win64; x64) AppleWebKit/537.36 (KHTML, like Gecko) Chrome/118.0.0.0 Safari/537.36" etag="ojd-nVo_tHy1_RjBHFMz" version="22.0.6" type="device">
  <diagram name="Puslapis-1" id="-kfIUloemR0NzZfNLSJ5">
    <mxGraphModel dx="1434" dy="758" grid="1" gridSize="10" guides="1" tooltips="1" connect="1" arrows="1" fold="1" page="1" pageScale="1" pageWidth="1169" pageHeight="827" math="0" shadow="0">
      <root>
        <mxCell id="0" />
        <mxCell id="1" parent="0" />
        <mxCell id="LQ9k2U_WuWXgE3zi9LW7-1" value="Vilnius" style="ellipse;whiteSpace=wrap;html=1;gradientColor=none;" vertex="1" parent="1">
          <mxGeometry x="940" y="310" width="70" height="40" as="geometry" />
        </mxCell>
        <mxCell id="LQ9k2U_WuWXgE3zi9LW7-2" value="Kaunas" style="ellipse;whiteSpace=wrap;html=1;gradientColor=none;" vertex="1" parent="1">
          <mxGeometry x="690" y="310" width="70" height="40" as="geometry" />
        </mxCell>
        <mxCell id="LQ9k2U_WuWXgE3zi9LW7-3" value="Šiauliai" style="ellipse;whiteSpace=wrap;html=1;gradientColor=none;" vertex="1" parent="1">
          <mxGeometry x="500" y="160" width="70" height="40" as="geometry" />
        </mxCell>
        <mxCell id="LQ9k2U_WuWXgE3zi9LW7-4" value="Utena" style="ellipse;whiteSpace=wrap;html=1;gradientColor=none;" vertex="1" parent="1">
          <mxGeometry x="960" y="160" width="70" height="40" as="geometry" />
        </mxCell>
        <mxCell id="LQ9k2U_WuWXgE3zi9LW7-5" value="Panevėžys" style="ellipse;whiteSpace=wrap;html=1;gradientColor=none;" vertex="1" parent="1">
          <mxGeometry x="790" y="190" width="70" height="40" as="geometry" />
        </mxCell>
        <mxCell id="LQ9k2U_WuWXgE3zi9LW7-6" value="Alytus" style="ellipse;whiteSpace=wrap;html=1;gradientColor=none;" vertex="1" parent="1">
          <mxGeometry x="690" y="450" width="70" height="40" as="geometry" />
        </mxCell>
        <mxCell id="LQ9k2U_WuWXgE3zi9LW7-7" value="Varėna" style="ellipse;whiteSpace=wrap;html=1;gradientColor=none;" vertex="1" parent="1">
          <mxGeometry x="820" y="540" width="70" height="40" as="geometry" />
        </mxCell>
        <mxCell id="LQ9k2U_WuWXgE3zi9LW7-9" value="Druskininkai" style="ellipse;whiteSpace=wrap;html=1;gradientColor=none;" vertex="1" parent="1">
          <mxGeometry x="680" y="620" width="70" height="40" as="geometry" />
        </mxCell>
        <mxCell id="LQ9k2U_WuWXgE3zi9LW7-10" value="Lazdijai" style="ellipse;whiteSpace=wrap;html=1;gradientColor=none;" vertex="1" parent="1">
          <mxGeometry x="490" y="520" width="70" height="40" as="geometry" />
        </mxCell>
        <mxCell id="LQ9k2U_WuWXgE3zi9LW7-11" value="Marijampolė" style="ellipse;whiteSpace=wrap;html=1;gradientColor=none;" vertex="1" parent="1">
          <mxGeometry x="430" y="360" width="70" height="40" as="geometry" />
        </mxCell>
        <mxCell id="LQ9k2U_WuWXgE3zi9LW7-12" value="" style="endArrow=classic;html=1;rounded=0;exitX=0.5;exitY=0;exitDx=0;exitDy=0;entryX=0.5;entryY=1;entryDx=0;entryDy=0;" edge="1" parent="1" source="LQ9k2U_WuWXgE3zi9LW7-1" target="LQ9k2U_WuWXgE3zi9LW7-4">
          <mxGeometry width="50" height="50" relative="1" as="geometry">
            <mxPoint x="560" y="420" as="sourcePoint" />
            <mxPoint x="610" y="370" as="targetPoint" />
          </mxGeometry>
        </mxCell>
        <mxCell id="LQ9k2U_WuWXgE3zi9LW7-13" value="" style="endArrow=classic;html=1;rounded=0;exitX=0;exitY=0;exitDx=0;exitDy=0;entryX=1;entryY=1;entryDx=0;entryDy=0;" edge="1" parent="1" source="LQ9k2U_WuWXgE3zi9LW7-1" target="LQ9k2U_WuWXgE3zi9LW7-5">
          <mxGeometry width="50" height="50" relative="1" as="geometry">
            <mxPoint x="560" y="420" as="sourcePoint" />
            <mxPoint x="610" y="370" as="targetPoint" />
          </mxGeometry>
        </mxCell>
        <mxCell id="LQ9k2U_WuWXgE3zi9LW7-14" value="" style="endArrow=classic;html=1;rounded=0;entryX=0;entryY=0.5;entryDx=0;entryDy=0;exitX=1;exitY=0.5;exitDx=0;exitDy=0;" edge="1" parent="1" source="LQ9k2U_WuWXgE3zi9LW7-5" target="LQ9k2U_WuWXgE3zi9LW7-4">
          <mxGeometry width="50" height="50" relative="1" as="geometry">
            <mxPoint x="560" y="420" as="sourcePoint" />
            <mxPoint x="610" y="370" as="targetPoint" />
          </mxGeometry>
        </mxCell>
        <mxCell id="LQ9k2U_WuWXgE3zi9LW7-16" value="" style="endArrow=classic;html=1;rounded=0;exitX=0;exitY=0.5;exitDx=0;exitDy=0;entryX=1;entryY=0.5;entryDx=0;entryDy=0;" edge="1" parent="1" source="LQ9k2U_WuWXgE3zi9LW7-1" target="LQ9k2U_WuWXgE3zi9LW7-2">
          <mxGeometry width="50" height="50" relative="1" as="geometry">
            <mxPoint x="560" y="420" as="sourcePoint" />
            <mxPoint x="610" y="370" as="targetPoint" />
          </mxGeometry>
        </mxCell>
        <mxCell id="LQ9k2U_WuWXgE3zi9LW7-17" value="" style="endArrow=classic;html=1;rounded=0;exitX=0;exitY=0;exitDx=0;exitDy=0;entryX=1;entryY=1;entryDx=0;entryDy=0;" edge="1" parent="1" source="LQ9k2U_WuWXgE3zi9LW7-2" target="LQ9k2U_WuWXgE3zi9LW7-3">
          <mxGeometry width="50" height="50" relative="1" as="geometry">
            <mxPoint x="560" y="420" as="sourcePoint" />
            <mxPoint x="610" y="370" as="targetPoint" />
          </mxGeometry>
        </mxCell>
        <mxCell id="LQ9k2U_WuWXgE3zi9LW7-18" value="" style="endArrow=classic;html=1;rounded=0;exitX=0;exitY=0.5;exitDx=0;exitDy=0;entryX=1;entryY=0.5;entryDx=0;entryDy=0;" edge="1" parent="1" source="LQ9k2U_WuWXgE3zi9LW7-2" target="LQ9k2U_WuWXgE3zi9LW7-11">
          <mxGeometry width="50" height="50" relative="1" as="geometry">
            <mxPoint x="560" y="420" as="sourcePoint" />
            <mxPoint x="610" y="370" as="targetPoint" />
          </mxGeometry>
        </mxCell>
        <mxCell id="LQ9k2U_WuWXgE3zi9LW7-19" value="" style="endArrow=classic;html=1;rounded=0;entryX=0.414;entryY=0.025;entryDx=0;entryDy=0;entryPerimeter=0;exitX=0.5;exitY=1;exitDx=0;exitDy=0;" edge="1" parent="1" source="LQ9k2U_WuWXgE3zi9LW7-2" target="LQ9k2U_WuWXgE3zi9LW7-6">
          <mxGeometry width="50" height="50" relative="1" as="geometry">
            <mxPoint x="560" y="420" as="sourcePoint" />
            <mxPoint x="610" y="370" as="targetPoint" />
          </mxGeometry>
        </mxCell>
        <mxCell id="LQ9k2U_WuWXgE3zi9LW7-20" value="" style="endArrow=classic;html=1;rounded=0;entryX=0.5;entryY=0;entryDx=0;entryDy=0;exitX=0.5;exitY=1;exitDx=0;exitDy=0;" edge="1" parent="1" source="LQ9k2U_WuWXgE3zi9LW7-6" target="LQ9k2U_WuWXgE3zi9LW7-9">
          <mxGeometry width="50" height="50" relative="1" as="geometry">
            <mxPoint x="560" y="420" as="sourcePoint" />
            <mxPoint x="610" y="370" as="targetPoint" />
          </mxGeometry>
        </mxCell>
        <mxCell id="LQ9k2U_WuWXgE3zi9LW7-21" value="" style="endArrow=classic;html=1;rounded=0;entryX=0.5;entryY=0;entryDx=0;entryDy=0;exitX=1;exitY=1;exitDx=0;exitDy=0;" edge="1" parent="1" source="LQ9k2U_WuWXgE3zi9LW7-6" target="LQ9k2U_WuWXgE3zi9LW7-7">
          <mxGeometry width="50" height="50" relative="1" as="geometry">
            <mxPoint x="560" y="420" as="sourcePoint" />
            <mxPoint x="610" y="370" as="targetPoint" />
          </mxGeometry>
        </mxCell>
        <mxCell id="LQ9k2U_WuWXgE3zi9LW7-22" value="" style="endArrow=classic;html=1;rounded=0;exitX=-0.029;exitY=0.3;exitDx=0;exitDy=0;exitPerimeter=0;entryX=1;entryY=1;entryDx=0;entryDy=0;" edge="1" parent="1" source="LQ9k2U_WuWXgE3zi9LW7-9" target="LQ9k2U_WuWXgE3zi9LW7-10">
          <mxGeometry width="50" height="50" relative="1" as="geometry">
            <mxPoint x="560" y="420" as="sourcePoint" />
            <mxPoint x="610" y="370" as="targetPoint" />
          </mxGeometry>
        </mxCell>
        <mxCell id="LQ9k2U_WuWXgE3zi9LW7-23" value="" style="endArrow=classic;html=1;rounded=0;exitX=0;exitY=0.5;exitDx=0;exitDy=0;entryX=1;entryY=0.5;entryDx=0;entryDy=0;" edge="1" parent="1" source="LQ9k2U_WuWXgE3zi9LW7-6" target="LQ9k2U_WuWXgE3zi9LW7-10">
          <mxGeometry width="50" height="50" relative="1" as="geometry">
            <mxPoint x="560" y="420" as="sourcePoint" />
            <mxPoint x="610" y="370" as="targetPoint" />
          </mxGeometry>
        </mxCell>
        <mxCell id="LQ9k2U_WuWXgE3zi9LW7-24" value="103" style="text;html=1;align=center;verticalAlign=middle;resizable=0;points=[];autosize=1;strokeColor=none;fillColor=none;" vertex="1" parent="1">
          <mxGeometry x="815" y="308" width="40" height="30" as="geometry" />
        </mxCell>
        <mxCell id="LQ9k2U_WuWXgE3zi9LW7-25" value="137" style="text;html=1;align=center;verticalAlign=middle;resizable=0;points=[];autosize=1;strokeColor=none;fillColor=none;" vertex="1" parent="1">
          <mxGeometry x="890" y="248" width="40" height="30" as="geometry" />
        </mxCell>
        <mxCell id="LQ9k2U_WuWXgE3zi9LW7-26" value="97" style="text;html=1;align=center;verticalAlign=middle;resizable=0;points=[];autosize=1;strokeColor=none;fillColor=none;" vertex="1" parent="1">
          <mxGeometry x="980" y="248" width="40" height="30" as="geometry" />
        </mxCell>
        <mxCell id="LQ9k2U_WuWXgE3zi9LW7-27" value="103" style="text;html=1;align=center;verticalAlign=middle;resizable=0;points=[];autosize=1;strokeColor=none;fillColor=none;" vertex="1" parent="1">
          <mxGeometry x="880" y="170" width="40" height="30" as="geometry" />
        </mxCell>
        <mxCell id="LQ9k2U_WuWXgE3zi9LW7-28" value="175" style="text;html=1;align=center;verticalAlign=middle;resizable=0;points=[];autosize=1;strokeColor=none;fillColor=none;" vertex="1" parent="1">
          <mxGeometry x="610" y="228" width="40" height="30" as="geometry" />
        </mxCell>
        <mxCell id="LQ9k2U_WuWXgE3zi9LW7-29" value="62" style="text;html=1;align=center;verticalAlign=middle;resizable=0;points=[];autosize=1;strokeColor=none;fillColor=none;" vertex="1" parent="1">
          <mxGeometry x="565" y="330" width="40" height="30" as="geometry" />
        </mxCell>
        <mxCell id="LQ9k2U_WuWXgE3zi9LW7-30" value="71" style="text;html=1;align=center;verticalAlign=middle;resizable=0;points=[];autosize=1;strokeColor=none;fillColor=none;" vertex="1" parent="1">
          <mxGeometry x="710" y="399" width="40" height="30" as="geometry" />
        </mxCell>
        <mxCell id="LQ9k2U_WuWXgE3zi9LW7-31" value="48" style="text;html=1;align=center;verticalAlign=middle;resizable=0;points=[];autosize=1;strokeColor=none;fillColor=none;" vertex="1" parent="1">
          <mxGeometry x="780" y="488" width="40" height="30" as="geometry" />
        </mxCell>
        <mxCell id="LQ9k2U_WuWXgE3zi9LW7-32" value="59" style="text;html=1;align=center;verticalAlign=middle;resizable=0;points=[];autosize=1;strokeColor=none;fillColor=none;" vertex="1" parent="1">
          <mxGeometry x="710" y="548" width="40" height="30" as="geometry" />
        </mxCell>
        <mxCell id="LQ9k2U_WuWXgE3zi9LW7-33" value="45" style="text;html=1;align=center;verticalAlign=middle;resizable=0;points=[];autosize=1;strokeColor=none;fillColor=none;" vertex="1" parent="1">
          <mxGeometry x="600" y="480" width="40" height="30" as="geometry" />
        </mxCell>
        <mxCell id="LQ9k2U_WuWXgE3zi9LW7-34" value="48" style="text;html=1;align=center;verticalAlign=middle;resizable=0;points=[];autosize=1;strokeColor=none;fillColor=none;" vertex="1" parent="1">
          <mxGeometry x="610" y="578" width="40" height="30" as="geometry" />
        </mxCell>
      </root>
    </mxGraphModel>
  </diagram>
</mxfile>
